<svg xmlns="http://www.w3.org/2000/svg" viewBox="0 0 666 886.64"><defs><style>.cls-1{fill:none;stroke:#f1f1f1;}.cls-1,.cls-2{stroke-linecap:round;stroke-linejoin:round;stroke-width:42px;}.cls-2{fill:#fff;stroke:#fff;}</style></defs><title>Asset 1</title><g id="Layer_2" data-name="Layer 2"><g id="Layer_2-2" data-name="Layer 2"><path class="cls-1" d="M474.14,865.49l-171.09.15S405,727.88,410.34,430l63.53,1.06h.75l63.4.05c5.32,297,107,434.33,107,434.33ZM358.62,761.66h98.53m-81.58-45.56h81.58M383,670.55h74.16"/><path class="cls-2" d="M244.14,865.49l-171.09.15S175,727.88,180.34,430l63.53,1.06h.75l63.4.05c5.32,297,107,434.33,107,434.33ZM128.62,761.66h98.53m-81.58-45.56h81.58M153,670.55h74.16"/><path class="cls-1" d="M645,182a95,95,0,0,0-95-95h-.51A95,95,0,1,0,424.55,204.56,95,95,0,1,0,581,277q0-2.58-.14-5.13A95,95,0,0,0,645,182Z"/><path class="cls-2" d="M377,159a95,95,0,0,0-184.16-32.86A95,95,0,1,0,116,277h.26a95,95,0,1,0,187.92-25.6A95,95,0,0,0,377,159Z"/></g></g></svg>
